<svg xmlns="http://www.w3.org/2000/svg" viewBox="0 0 64 64" width="64" height="64">
  <defs>
    <linearGradient id="grad" x1="0%" y1="100%" x2="100%" y2="0%">
      <stop offset="0%" stop-color="#059669" />
      <stop offset="100%" stop-color="#2dd4bf" />
    </linearGradient>
  </defs>
  <rect width="64" height="64" rx="16" fill="url(#grad)" />
  <g transform="translate(12, 12) scale(1.6667)" fill="none" stroke="#ffffff" stroke-width="2.2" stroke-linecap="round" stroke-linejoin="round">
    <path d="M19.07 4.93A10 10 0 0 0 6.99 3.34"/>
    <path d="M4 6h.01"/>
    <path d="M2.29 9.62A10 10 0 1 0 21.31 8.35"/>
    <path d="M16.24 7.76A6 6 0 1 0 8.23 16.67"/>
    <path d="M12 18h.01"/>
    <path d="M17.99 11.66A6 6 0 0 1 15.77 14.77"/>
    <circle cx="12" cy="12" r="2" fill="#ffffff"/>
    <path d="m13.41 10.59 5.66-5.66"/>
  </g>
</svg>
